<svg width="698" height="321" viewBox="0 0 698 321" fill="none" xmlns="http://www.w3.org/2000/svg">
<path d="M123.467 0.0478516L1.64049 80.7484L4.35957 84.8514L123.467 5.95204L241.472 84.1215V108.244H142.264V292.556H243.933V287.634H147.187V202.861H215.588V197.939H147.187V113.166H246.395V81.4784L123.467 0.0478516Z" fill="white"/>
<path fill-rule="evenodd" clip-rule="evenodd" d="M0.538574 108.244V320.461H243.933V315.539H5.46149V206.574L86.2489 291.788L89.8218 288.402L6.51999 200.535L108.6 108.244H0.538574ZM5.46149 113.166V194.857L95.8161 113.166H5.46149Z" fill="white"/>
<path fill-rule="evenodd" clip-rule="evenodd" d="M313.498 97.4999V180.187H317.515V152.428H342.209C345.426 152.428 348.427 152.185 351.211 151.699L371.628 180.187H376.354L355.177 150.8C356.81 150.339 358.355 149.779 359.813 149.121C364.775 146.916 368.556 143.766 371.155 139.671C373.755 135.576 375.054 130.654 375.054 124.905C375.054 119.156 373.755 114.274 371.155 110.257C368.556 106.162 364.775 103.012 359.813 100.807C354.93 98.6024 349.061 97.4999 342.209 97.4999H313.498ZM317.515 148.766H342.445C351.739 148.766 358.828 146.679 363.712 142.506C368.674 138.332 371.155 132.465 371.155 124.905C371.155 117.345 368.674 111.517 363.712 107.422C358.828 103.249 351.739 101.162 342.445 101.162H317.515V148.766Z" fill="white"/>
<path fill-rule="evenodd" clip-rule="evenodd" d="M404.329 176.644C408.976 179.242 414.332 180.542 420.397 180.542C424.887 180.542 429.101 179.715 433.039 178.061C437.056 176.329 440.443 173.809 443.2 170.501L440.719 167.902C438.356 170.974 435.363 173.257 431.74 174.754C428.195 176.25 424.414 176.998 420.397 176.998C415.12 176.998 410.433 175.856 406.337 173.572C402.242 171.21 399.012 167.981 396.649 163.886C394.356 159.836 393.175 155.229 393.108 150.066H446.863V149.002C446.863 143.017 445.603 137.741 443.082 133.174C440.64 128.527 437.214 124.905 432.803 122.306C428.471 119.707 423.587 118.408 418.152 118.408C412.639 118.408 407.676 119.747 403.265 122.424C398.933 125.102 395.507 128.764 392.986 133.41C390.545 138.056 389.324 143.411 389.324 149.475C389.324 155.46 390.663 160.815 393.341 165.54C396.019 170.265 399.682 173.966 404.329 176.644ZM393.159 146.876C393.401 142.492 394.446 138.555 396.295 135.064C398.5 130.969 401.493 127.779 405.274 125.496C409.055 123.133 413.348 121.952 418.152 121.952C422.957 121.952 427.25 123.133 431.031 125.496C434.811 127.779 437.765 130.969 439.892 135.064C441.822 138.579 442.908 142.516 443.149 146.876H393.159Z" fill="white"/>
<path fill-rule="evenodd" clip-rule="evenodd" d="M503.359 167.92V180.187H507.14V140.497C507.14 133.252 505.17 127.779 501.232 124.078C497.373 120.298 491.78 118.408 484.455 118.408C479.808 118.408 475.357 119.235 471.104 120.889C466.85 122.464 463.267 124.629 460.352 127.386L462.479 130.221C465.157 127.779 468.347 125.811 472.049 124.314C475.751 122.739 479.847 121.952 484.337 121.952C490.48 121.952 495.167 123.527 498.397 126.677C501.626 129.827 503.241 134.434 503.241 140.497V146.522H480.91C475.397 146.522 470.986 147.309 467.678 148.884C464.448 150.381 462.124 152.428 460.707 155.027C459.289 157.547 458.58 160.303 458.58 163.296C458.58 166.682 459.446 169.714 461.179 172.391C462.912 174.99 465.393 176.998 468.623 178.416C471.931 179.833 475.909 180.542 480.556 180.542C486.778 180.542 491.938 179.124 496.034 176.289C499.255 174.06 501.697 171.27 503.359 167.92ZM503.241 162.469C501.35 167.194 498.554 170.856 494.852 173.454C491.15 175.974 486.463 177.234 480.792 177.234C475.042 177.234 470.553 175.974 467.323 173.454C464.094 170.856 462.479 167.391 462.479 163.059C462.479 159.201 463.857 156.011 466.614 153.491C469.45 150.971 474.215 149.711 480.91 149.711H503.241V162.469Z" fill="white"/>
<path d="M532.675 92.5387V180.187H536.574V92.5387H532.675Z" fill="white"/>
<path d="M317.515 277.837V314.338H369.383V318H313.498V235.312H367.729V238.974H317.515V274.176H362.412V277.837H317.515Z" fill="white"/>
<path d="M389.963 316.11C394.373 317.606 399.099 318.354 404.141 318.354C409.339 318.354 413.632 317.685 417.019 316.346C420.485 315.007 423.084 313.117 424.817 310.676C426.628 308.156 427.534 305.321 427.534 302.171C427.534 298.785 426.786 296.107 425.289 294.139C423.793 292.17 421.824 290.634 419.382 289.532C416.94 288.429 414.223 287.563 411.23 286.933C408.315 286.303 405.361 285.712 402.368 285.161C399.454 284.61 396.776 283.901 394.334 283.035C391.892 282.169 389.923 280.909 388.427 279.255C386.93 277.522 386.182 275.239 386.182 272.404C386.182 268.86 387.639 265.867 390.553 263.426C393.468 260.985 398.115 259.764 404.495 259.764C407.961 259.764 411.308 260.237 414.538 261.182C417.846 262.127 420.721 263.584 423.163 265.552L425.171 262.481C422.887 260.591 419.815 259.095 415.956 257.992C412.175 256.811 408.394 256.221 404.613 256.221C399.493 256.221 395.279 257.008 391.971 258.583C388.663 260.079 386.182 262.048 384.528 264.489C382.952 266.931 382.165 269.608 382.165 272.522C382.165 275.908 382.913 278.625 384.409 280.672C385.906 282.72 387.875 284.334 390.317 285.516C392.759 286.618 395.476 287.524 398.469 288.232C401.462 288.862 404.416 289.453 407.331 290.004C410.324 290.477 413.041 291.146 415.483 292.012C417.925 292.879 419.894 294.099 421.39 295.674C422.887 297.249 423.635 299.415 423.635 302.171C423.635 305.951 422.099 309.022 419.027 311.385C416.034 313.747 411.111 314.929 404.259 314.929C399.454 314.929 395.082 314.141 391.144 312.566C387.206 310.991 384.094 309.18 381.81 307.132L379.92 310.204C382.204 312.566 385.552 314.535 389.963 316.11Z" fill="white"/>
<path d="M449.95 314.102C452.628 316.937 456.488 318.354 461.529 318.354C463.813 318.354 466.058 318 468.264 317.291C470.469 316.582 472.32 315.519 473.817 314.102L471.808 311.267C469.209 313.708 465.901 314.929 461.884 314.929C457.945 314.929 454.952 313.826 452.904 311.621C450.856 309.416 449.832 306.227 449.832 302.053V260.119H470.036V256.693H449.832V243.227H445.933V256.693H434.355V260.119H445.933V302.644C445.933 307.447 447.272 311.267 449.95 314.102Z" fill="white"/>
<path fill-rule="evenodd" clip-rule="evenodd" d="M530.127 305.732V318H533.908V278.31C533.908 271.065 531.939 265.592 528 261.891C524.141 258.111 518.549 256.221 511.223 256.221C506.576 256.221 502.126 257.047 497.872 258.701C493.619 260.276 490.035 262.442 487.121 265.198L489.247 268.033C491.925 265.592 495.115 263.623 498.817 262.127C502.52 260.552 506.615 259.764 511.105 259.764C517.249 259.764 521.935 261.339 525.165 264.489C528.394 267.639 530.009 272.246 530.009 278.31V284.334H507.679C502.165 284.334 497.754 285.122 494.446 286.697C491.216 288.193 488.893 290.241 487.475 292.839C486.057 295.359 485.348 298.116 485.348 301.108C485.348 304.494 486.215 307.526 487.948 310.204C489.681 312.802 492.162 314.811 495.391 316.228C498.699 317.646 502.677 318.354 507.324 318.354C513.547 318.354 518.706 316.937 522.802 314.102C526.023 311.872 528.465 309.082 530.127 305.732ZM530.009 300.281C528.119 305.006 525.322 308.668 521.62 311.267C517.918 313.787 513.232 315.047 507.561 315.047C501.811 315.047 497.321 313.787 494.091 311.267C490.862 308.668 489.247 305.203 489.247 300.872C489.247 297.013 490.626 293.824 493.383 291.304C496.218 288.784 500.984 287.524 507.679 287.524H530.009V300.281Z" fill="white"/>
<path d="M564.524 314.102C567.202 316.937 571.061 318.354 576.102 318.354C578.387 318.354 580.631 318 582.837 317.291C585.042 316.582 586.893 315.519 588.39 314.102L586.381 311.267C583.782 313.708 580.474 314.929 576.457 314.929C572.518 314.929 569.525 313.826 567.477 311.621C565.429 309.416 564.405 306.227 564.405 302.053V260.119H584.609V256.693H564.405V243.227H560.507V256.693H548.928V260.119H560.507V302.644C560.507 307.447 561.846 311.267 564.524 314.102Z" fill="white"/>
<path fill-rule="evenodd" clip-rule="evenodd" d="M611.438 314.456C616.085 317.055 621.441 318.354 627.506 318.354C631.996 318.354 636.21 317.527 640.148 315.874C644.165 314.141 647.552 311.621 650.309 308.314L647.828 305.715C645.465 308.786 642.471 311.07 638.848 312.566C635.304 314.062 631.523 314.811 627.506 314.811C622.229 314.811 617.542 313.669 613.446 311.385C609.35 309.022 606.121 305.794 603.758 301.699C601.464 297.648 600.284 293.041 600.216 287.878H653.971V286.815C653.971 280.83 652.711 275.554 650.191 270.986C647.749 266.34 644.323 262.717 639.912 260.119C635.579 257.52 630.696 256.221 625.261 256.221C619.747 256.221 614.785 257.559 610.374 260.237C606.042 262.914 602.616 266.576 600.095 271.222C597.653 275.869 596.432 281.224 596.432 287.287C596.432 293.272 597.771 298.627 600.45 303.352C603.128 308.077 606.79 311.779 611.438 314.456ZM600.268 284.689C600.509 280.305 601.555 276.367 603.403 272.876C605.609 268.781 608.602 265.592 612.383 263.308C616.163 260.946 620.456 259.764 625.261 259.764C630.066 259.764 634.359 260.946 638.139 263.308C641.92 265.592 644.874 268.781 647.001 272.876C648.931 276.391 650.016 280.329 650.257 284.689H600.268Z" fill="white"/>
</svg>
