<svg width="1121" height="515" viewBox="0 0 1121 515" fill="none" xmlns="http://www.w3.org/2000/svg">
<path d="M197.613 0.257935L1.81495 129.891L6.18503 136.482L197.613 9.74212L387.271 135.31V174.059H227.824V470.128H391.227V462.222H235.736V326.046H345.671V318.14H235.736V181.965H395.183V131.064L197.613 0.257935Z" fill="black"/>
<path fill-rule="evenodd" clip-rule="evenodd" d="M0.0439453 174.059V514.953H391.227V507.047H7.95603V332.01L137.797 468.894L143.539 463.455L9.65724 322.311L173.719 174.059H0.0439453ZM7.95603 181.965V313.189L153.173 181.965H7.95603Z" fill="black"/>
<path fill-rule="evenodd" clip-rule="evenodd" d="M503.031 156.8V289.625H509.487V245.034H549.174C554.346 245.034 559.168 244.643 563.642 243.862L596.457 289.625H604.052L570.017 242.419C572.641 241.677 575.125 240.778 577.468 239.721C585.443 236.179 591.52 231.119 595.697 224.541C599.875 217.963 601.964 210.057 601.964 200.822C601.964 191.588 599.875 183.745 595.697 177.293C591.52 170.715 585.443 165.655 577.468 162.113C569.619 158.571 560.188 156.8 549.174 156.8H503.031ZM509.487 239.152H549.554C564.492 239.152 575.885 235.799 583.734 229.095C591.71 222.39 595.697 212.966 595.697 200.822C595.697 188.678 591.71 179.317 583.734 172.739C575.885 166.035 564.492 162.682 549.554 162.682H509.487V239.152Z" fill="black"/>
<path fill-rule="evenodd" clip-rule="evenodd" d="M649.013 283.933C656.482 288.107 665.091 290.194 674.838 290.194C682.054 290.194 688.827 288.866 695.157 286.21C701.613 283.427 707.056 279.379 711.487 274.066L707.499 269.891C703.702 274.825 698.891 278.493 693.068 280.897C687.371 283.3 681.295 284.502 674.838 284.502C666.357 284.502 658.824 282.668 652.241 278.999C645.659 275.204 640.468 270.018 636.67 263.44C632.985 256.933 631.087 249.533 630.979 241.239H717.374V239.531C717.374 229.917 715.348 221.442 711.297 214.105C707.373 206.641 701.866 200.822 694.777 196.648C687.814 192.473 679.965 190.386 671.23 190.386C662.369 190.386 654.393 192.536 647.304 196.837C640.342 201.138 634.835 207.021 630.784 214.484C626.859 221.948 624.897 230.55 624.897 240.29C624.897 249.904 627.049 258.506 631.354 266.096C635.658 273.686 641.544 279.632 649.013 283.933ZM631.061 236.116C631.45 229.074 633.13 222.749 636.101 217.141C639.645 210.563 644.456 205.439 650.532 201.771C656.609 197.976 663.508 196.078 671.23 196.078C678.953 196.078 685.852 197.976 691.928 201.771C698.005 205.439 702.752 210.563 706.17 217.141C709.273 222.787 711.017 229.112 711.404 236.116H631.061Z" fill="black"/>
<path fill-rule="evenodd" clip-rule="evenodd" d="M808.174 269.919V289.625H814.25V225.869C814.25 214.231 811.085 205.439 804.756 199.494C798.553 193.422 789.565 190.386 777.791 190.386C770.322 190.386 763.17 191.714 756.334 194.371C749.498 196.901 743.738 200.379 739.054 204.807L742.472 209.361C746.776 205.439 751.903 202.277 757.853 199.873C763.803 197.343 770.386 196.078 777.601 196.078C787.476 196.078 795.008 198.608 800.198 203.668C805.389 208.728 807.984 216.129 807.984 225.869V235.546H772.095C763.233 235.546 756.144 236.811 750.827 239.341C745.637 241.745 741.902 245.034 739.623 249.208C737.345 253.256 736.205 257.684 736.205 262.491C736.205 267.93 737.598 272.801 740.383 277.102C743.168 281.276 747.156 284.502 752.346 286.779C757.663 289.056 764.056 290.194 771.525 290.194C781.526 290.194 789.818 287.917 796.401 283.363C801.578 279.782 805.502 275.3 808.174 269.919ZM807.984 261.163C804.946 268.753 800.452 274.635 794.502 278.809C788.552 282.857 781.019 284.881 771.905 284.881C762.663 284.881 755.448 282.857 750.257 278.809C745.067 274.635 742.472 269.069 742.472 262.111C742.472 255.913 744.687 250.79 749.118 246.742C753.675 242.694 761.334 240.67 772.095 240.67H807.984V261.163Z" fill="black"/>
<path d="M855.29 148.831V289.625H861.557V148.831H855.29Z" fill="black"/>
<path d="M509.487 446.485V505.118H592.849V511H503.031V378.175H590.19V384.057H509.487V440.603H581.645V446.485H509.487Z" fill="black"/>
<path d="M625.924 507.964C633.013 510.368 640.609 511.569 648.711 511.569C657.066 511.569 663.965 510.494 669.409 508.344C674.979 506.193 679.156 503.157 681.941 499.236C684.853 495.188 686.309 490.634 686.309 485.574C686.309 480.134 685.106 475.833 682.701 472.671C680.296 469.508 677.131 467.041 673.206 465.27C669.282 463.499 664.915 462.108 660.104 461.096C655.42 460.084 650.673 459.135 645.862 458.25C641.178 457.364 636.874 456.226 632.95 454.834C629.025 453.443 625.861 451.419 623.455 448.762C621.05 445.979 619.847 442.311 619.847 437.757C619.847 432.064 622.189 427.257 626.873 423.336C631.557 419.414 639.026 417.453 649.28 417.453C654.85 417.453 660.231 418.212 665.421 419.73C670.738 421.248 675.359 423.589 679.283 426.751L682.511 421.818C678.84 418.782 673.903 416.378 667.7 414.607C661.623 412.71 655.547 411.761 649.47 411.761C641.242 411.761 634.469 413.026 629.152 415.556C623.835 417.959 619.847 421.122 617.189 425.043C614.657 428.965 613.391 433.266 613.391 437.946C613.391 443.386 614.594 447.75 616.999 451.039C619.404 454.328 622.569 456.921 626.493 458.819C630.418 460.59 634.785 462.045 639.596 463.183C644.406 464.195 649.154 465.144 653.838 466.029C658.648 466.788 663.016 467.864 666.94 469.255C670.864 470.647 674.029 472.607 676.435 475.137C678.84 477.667 680.043 481.146 680.043 485.574C680.043 491.646 677.574 496.579 672.637 500.374C667.826 504.169 659.914 506.067 648.901 506.067C641.178 506.067 634.152 504.802 627.823 502.272C621.493 499.742 616.493 496.832 612.821 493.543L609.783 498.477C613.454 502.272 618.835 505.434 625.924 507.964Z" fill="black"/>
<path d="M722.336 504.738C726.64 509.292 732.843 511.569 740.945 511.569C744.617 511.569 748.224 511 751.769 509.862C755.314 508.723 758.289 507.015 760.694 504.738L757.466 500.184C753.288 504.106 747.971 506.067 741.515 506.067C735.185 506.067 730.375 504.296 727.083 500.754C723.792 497.212 722.146 492.088 722.146 485.384V418.023H754.617V412.52H722.146V390.888H715.88V412.52H697.271V418.023H715.88V486.333C715.88 494.049 718.032 500.184 722.336 504.738Z" fill="black"/>
<path fill-rule="evenodd" clip-rule="evenodd" d="M851.196 491.294V511H857.272V447.244C857.272 435.606 854.107 426.814 847.778 420.869C841.575 414.797 832.586 411.761 820.813 411.761C813.344 411.761 806.192 413.089 799.356 415.746C792.52 418.276 786.76 421.754 782.076 426.182L785.494 430.736C789.798 426.814 794.925 423.652 800.875 421.248C806.825 418.718 813.408 417.453 820.623 417.453C830.498 417.453 838.03 419.983 843.22 425.043C848.411 430.103 851.006 437.504 851.006 447.244V456.921H815.117C806.255 456.921 799.166 458.186 793.849 460.716C788.659 463.12 784.924 466.409 782.645 470.583C780.367 474.631 779.227 479.059 779.227 483.866C779.227 489.305 780.62 494.176 783.405 498.477C786.19 502.651 790.178 505.877 795.368 508.154C800.685 510.431 807.078 511.569 814.547 511.569C824.548 511.569 832.84 509.292 839.422 504.738C844.6 501.157 848.524 496.675 851.196 491.294ZM851.006 482.538C847.968 490.128 843.474 496.01 837.524 500.184C831.574 504.232 824.041 506.256 814.927 506.256C805.685 506.256 798.47 504.232 793.279 500.184C788.089 496.01 785.494 490.444 785.494 483.486C785.494 477.288 787.709 472.165 792.14 468.117C796.697 464.069 804.356 462.045 815.117 462.045H851.006V482.538Z" fill="black"/>
<path d="M906.477 504.738C910.782 509.292 916.985 511.569 925.087 511.569C928.758 511.569 932.366 511 935.91 509.862C939.455 508.723 942.43 507.015 944.835 504.738L941.607 500.184C937.43 504.106 932.113 506.067 925.656 506.067C919.327 506.067 914.516 504.296 911.225 500.754C907.933 497.212 906.287 492.088 906.287 485.384V418.023H938.759V412.52H906.287V390.888H900.021V412.52H881.412V418.023H900.021V486.333C900.021 494.049 902.173 500.184 906.477 504.738Z" fill="black"/>
<path fill-rule="evenodd" clip-rule="evenodd" d="M981.877 505.308C989.346 509.482 997.954 511.569 1007.7 511.569C1014.92 511.569 1021.69 510.241 1028.02 507.585C1034.48 504.802 1039.92 500.754 1044.35 495.441L1040.36 491.266C1036.57 496.2 1031.75 499.868 1025.93 502.272C1020.23 504.675 1014.16 505.877 1007.7 505.877C999.22 505.877 991.688 504.043 985.105 500.374C978.522 496.579 973.332 491.393 969.534 484.815C965.849 478.308 963.951 470.908 963.843 462.614H1050.24V460.906C1050.24 451.292 1048.21 442.817 1044.16 435.48C1040.24 428.016 1034.73 422.197 1027.64 418.023C1020.68 413.848 1012.83 411.761 1004.09 411.761C995.233 411.761 987.257 413.911 980.168 418.212C973.205 422.513 967.699 428.396 963.648 435.859C959.723 443.323 957.761 451.925 957.761 461.665C957.761 471.279 959.913 479.881 964.217 487.471C968.521 495.061 974.408 501.007 981.877 505.308ZM963.925 457.491C964.314 450.449 965.993 444.124 968.965 438.516C972.509 431.938 977.32 426.814 983.396 423.146C989.473 419.351 996.372 417.453 1004.09 417.453C1011.82 417.453 1018.72 419.351 1024.79 423.146C1030.87 426.814 1035.62 431.938 1039.03 438.516C1042.14 444.162 1043.88 450.487 1044.27 457.491H963.925Z" fill="black"/>
</svg>
